<?xml version="1.0" encoding="utf-8" ?>
<svg xmlns="http://www.w3.org/2000/svg" xmlns:xlink="http://www.w3.org/1999/xlink" width="1033" height="888">
	<path fill="#FEFEFE" transform="matrix(1.72167 0 0 1.72093 0 3.05176e-05)" d="M387.887 47.213C402.69 47.2987 417.627 46.6121 432.41 47.307C434.261 49.0103 436.011 50.8365 437.79 52.6153C440.521 53.0698 442.977 54.3804 445.706 54.6762C450.374 55.1822 455.149 54.5236 459.838 54.8733C463.68 55.1598 468.377 56.6593 472.083 57.8154C476.089 59.0648 480.401 60.2385 484.18 62.0478C492.922 66.2335 501.747 75.1319 508.04 82.4603C511.986 87.0562 516.538 97.6309 517.765 103.536C518.191 105.588 518.282 107.936 518.111 110.027C518.75 110.438 519.537 111.047 519.712 111.808C520.506 114.948 520.289 129.329 519.652 132.51C519.629 133.107 518.048 134.816 517.954 137.034C517.771 141.342 518.785 149.884 517.554 153.567C517.547 153.677 517.565 153.791 517.533 153.897C517.295 154.69 516.589 155.25 515.98 155.752C517.054 160.334 515.423 166.529 514.522 171.051C514.113 173.101 514.161 175.226 513.776 177.284C513.112 180.837 512.183 183.851 512.026 187.511C509.858 187.554 507.717 187.482 505.552 187.368L503.244 185.743C501.412 185.437 500.78 184.862 499.528 183.599L495.661 183.432L493.816 181.762L487.052 181.589C486.937 176.189 487.742 173.645 488.621 168.452C488.992 166.259 489.004 164.011 489.386 161.822C489.639 160.37 490.539 159.115 490.703 157.66C491.098 154.171 490.572 150.589 491.071 147.085C491.353 145.102 492.616 143.561 492.775 141.507C493.12 137.04 492.749 132.375 492.76 127.888C492.786 117.209 494.083 106.325 486.518 97.5667C477.926 87.6196 470.688 84.2541 458.014 81.4607C456.653 81.1607 455.476 80.2104 454.14 80.0537C448.81 79.4283 443.351 80.1771 438 79.7774L437.569 79.7432C436.959 83.4207 434.866 85.1165 432.336 87.5682C423.009 87.7411 413.655 87.6282 404.325 87.6389C400.372 87.6434 393.983 88.2065 390.28 87.3842C388.849 87.0663 387.161 86.0195 385.79 85.4021C385.078 83.8153 384.067 82.3508 383.652 80.6419C382.059 74.0753 382.988 59.1204 383.224 51.7704C384.724 50.184 386.278 48.6878 387.887 47.213Z"/>
	<path fill="#FEFEFE" transform="matrix(1.72167 0 0 1.72093 0 3.05176e-05)" d="M274.567 54.8173C275.923 53.1541 277.453 51.4657 279.144 50.1391C280.648 48.959 282.574 47.8758 284.463 47.492C289.123 46.5451 296.984 47.1389 301.942 47.1359C309.31 47.1315 317.211 46.5538 324.502 47.4278C327.591 49.6169 329.943 52.6964 330.726 56.4431C331.437 59.8461 331.554 75.838 330.945 79.3714Q330.687 80.8469 330.133 82.2387Q329.579 83.6304 328.753 84.8799C327.329 87.023 324.28 88.8623 321.716 89.2862C316.463 90.1544 305.849 89.5689 300.107 89.5616C295.281 89.5554 289.781 90.1165 285.056 89.3832C283.142 89.0861 281.126 88.0729 279.555 86.9453C276.853 85.005 275.291 82.7615 274.739 79.4627C272.022 80.1676 269.339 81.1805 266.555 81.5799C262.143 82.2128 257.42 81.7769 252.93 82.118L251.094 83.6504C250.027 83.7787 248.832 83.8548 247.816 84.2086C243.455 85.7263 235.003 90.246 231.811 93.332C225.456 99.4762 221.542 109.427 221.429 118.177C221.574 124.957 221.455 131.75 221.436 138.532C221.425 142.659 221.253 146.904 221.779 151.003C223.6 155.631 223.425 160.406 223.579 165.307C225.772 167.915 225.383 171.883 225.526 175.121C226.056 175.755 226.696 176.501 226.995 177.28C227.277 178.014 227.155 178.414 226.876 179.111Q219.098 181.497 211.636 184.739C208.697 186.038 205.579 188.15 202.504 188.955C201.134 187.037 200.23 177.65 199.791 174.919C199.458 172.849 198.82 170.832 198.511 168.754C198.103 166.006 198.426 162.906 197.285 160.348C194.719 154.598 197.997 147.207 195.48 141.421C194.763 139.774 194.566 138.525 194.47 136.757C194.203 131.85 193.884 124.414 194.712 119.671C194.986 118.1 196.047 116.691 196.301 115.112C196.698 112.646 196.165 110.01 196.554 107.523C198.176 97.1496 203.366 85.889 210.448 78.1061C214.941 73.1691 219.793 69.7356 225.316 66.0395C227.55 64.5441 229.77 62.9175 232.197 61.7459C237.912 58.987 246.776 56.7581 253.065 56.4758L255.358 54.8825C261.73 54.6488 268.187 54.7667 274.567 54.8173Z"/>
	<path fill="#FEFEFE" transform="matrix(1.72167 0 0 1.72093 0 3.05176e-05)" d="M480.647 206.474C481.175 206.473 481.701 206.489 482.229 206.497C486.196 206.558 491.879 208.682 495.349 210.647C497.947 212.117 501.479 214.717 502.315 217.713C501.839 221.599 499.556 225.787 498.089 229.432Q494.73 237.753 490.806 245.823Q486.882 253.892 482.411 261.672Q477.939 269.452 472.942 276.905Q467.945 284.358 462.446 291.448C459.118 295.823 454.347 299.815 450.419 303.715C446.387 307.72 442.464 312.113 438.157 315.805C436.644 317.103 434.876 318.062 433.288 319.262C431.792 320.393 430.447 321.731 428.928 322.83C425.199 325.53 421.295 327.68 417.291 329.907C414.887 331.244 412.743 332.968 410.294 334.254C407.645 335.646 404.923 336.637 402.161 337.745C392.297 341.701 386.903 343.171 376.599 345.163C374.205 345.626 372.018 346.684 369.628 346.999C369.9 352.917 369.707 358.942 369.567 364.864L368.056 366.745C367.72 371.821 366.679 376.308 365.497 381.245C361.964 395.996 358.405 404.153 349.895 416.759C348.098 419.421 346.376 422.339 344.219 424.727C340.386 428.968 334.047 435.505 329.739 439.048C327.899 440.562 325.82 441.793 323.942 443.271C320.634 445.875 317.295 448.421 313.631 450.524C309.39 452.96 304.82 454.988 300.445 457.181C293.906 460.459 287.604 463.866 280.14 464.218C277.92 466.165 274.923 466.021 272.126 466.267L270.448 467.608C257.05 467.966 243.5 467.811 230.097 467.592C228.213 466.211 226.627 466.159 224.42 465.702C217.163 464.198 209.947 461.249 203.336 457.971C199.593 456.115 195.463 454.41 191.971 452.139C184.618 447.358 178.451 441.294 172.284 435.134C170.051 432.903 167.664 430.71 165.607 428.32C161.714 423.795 158.135 418.588 154.865 413.599C150.886 407.335 142.391 388.317 142.235 381.406C141.899 381.422 141.564 381.429 141.229 381.442C140.304 381.477 139.384 381.545 138.483 381.286C136.355 380.674 134.447 379.284 132.412 378.426C128.024 376.576 124.794 376.016 120.474 373.322C109.964 366.768 101.784 358.163 96.1301 347.103C94.9492 344.793 93.7241 342.42 92.9658 339.933C92.0036 336.778 91.0941 333.167 90.6124 329.908C90.3768 328.313 90.3866 326.584 90.03 325.021C89.7618 323.846 88.8261 322.949 88.5908 321.743C88.0886 319.169 88.0654 314.193 88.7261 311.67C89.0744 310.34 90.0039 309.202 90.2412 307.845C90.6459 305.531 90.1928 303.1 90.6515 300.767C92.2865 292.45 98.0562 282.244 103.149 275.563C108.785 268.168 117.218 261.634 125.686 257.836C128.12 256.744 130.738 255.963 133.271 255.123C135.521 254.376 137.794 253.52 140.114 253.026C142.668 252.483 145.314 252.646 147.885 252.197C150.17 251.798 152.302 250.621 154.614 250.39C156.949 250.157 158.83 250.904 160.619 252.307C163.082 252.426 165.727 252.285 168.157 252.636C172.158 253.214 176.71 255.31 180.323 257.098C192.369 263.061 203.387 271.169 209.86 283.307C211.437 286.264 212.954 289.379 214.283 292.456C215.222 294.628 215.636 297.443 217.046 299.271C217.116 299.362 217.189 299.451 217.261 299.542C217.398 301.362 217.428 303.256 217.767 305.05C218.273 307.731 219.259 310.331 219.432 313.07C219.63 316.206 220.031 320.697 219.285 323.711C218.951 325.064 218.022 326.199 217.764 327.592C217.452 329.278 217.692 331.046 217.337 332.734C215.531 341.338 209.631 352.921 203.755 359.417C196.542 367.393 191.131 371.357 181.591 376.257C178.4 377.896 175.834 379.459 172.183 379.63C171.207 380.61 170.11 381.49 169.064 382.395C169.59 382.714 170.263 383.065 170.712 383.48C171.302 384.025 171.337 385.139 171.424 385.899C172.1 391.751 182.823 408.037 186.928 412.923C189.69 416.21 193.067 419.389 196.223 422.309C197.912 423.873 199.828 425.119 201.668 426.49C203.69 427.997 205.66 429.697 207.794 431.036C214.333 435.138 222.968 438.475 230.438 440.242C232.462 440.72 234.607 440.535 236.637 440.96C237.918 441.228 239.009 442.126 240.299 442.301C246.165 443.097 252.987 442.565 258.91 442.336C262.007 440.106 265.99 440.898 269.594 440.163Q271.676 439.741 273.738 439.227Q275.799 438.713 277.836 438.107Q279.873 437.502 281.88 436.807Q283.888 436.111 285.863 435.327Q287.838 434.543 289.776 433.672Q291.714 432.801 293.611 431.845Q295.508 430.889 297.361 429.849Q299.214 428.809 301.019 427.688Q302.824 426.567 304.577 425.366Q306.331 424.166 308.029 422.889Q309.727 421.612 311.366 420.26Q313.006 418.909 314.584 417.486Q316.162 416.063 317.675 414.571Q319.188 413.079 320.633 411.521Q322.079 409.964 323.453 408.343Q324.828 406.723 326.129 405.043C328.043 402.531 330.016 400.062 331.579 397.311C335.76 389.952 338.109 381.938 340.797 373.967C341.414 372.135 341.981 370.342 342.248 368.421C342.618 365.747 341.952 360.482 343.382 358.351C345.146 355.721 344.533 349.683 344.529 346.56C342.892 346.706 341.241 346.645 339.598 346.628L337.931 344.839C335.335 344.893 332.767 344.776 330.176 344.643C326.878 342.019 316.188 339.916 311.444 337.966C305.903 335.687 300.306 332.622 295.026 329.772C290.602 327.383 287.191 324.255 283.176 321.356C281.792 320.356 280.182 319.763 278.892 318.625C276.325 316.361 274.164 313.593 271.464 311.485C270.107 310.427 268.436 309.915 267.064 308.912C262.987 305.932 260.629 301.195 257.537 297.368C255.332 294.638 252.317 292.588 250.155 289.814Q238.221 274.54 228.626 257.697C227.231 255.293 226.142 252.718 224.786 250.301C223.938 248.79 222.558 247.598 221.741 246.079C221.016 244.73 221.098 243.048 220.519 241.633C217.928 235.304 214.222 229.756 213.353 222.775L211.81 221.02L211.544 215.001C216.222 210.374 222.559 209.537 228.199 206.813L228.512 206.66C229.211 206.6 229.945 206.532 230.645 206.581C233.144 206.757 235.225 209.764 236.76 211.526C237.199 216.213 239.612 219.295 241.426 223.465C242.544 226.034 243.244 228.749 244.436 231.3C249.633 242.424 256.179 252.834 263.021 263.007C265.073 266.058 267.027 269.259 269.239 272.191C271.711 275.468 275.258 277.911 277.84 281.101C279.301 282.906 279.888 285.115 281.605 286.77C283.481 288.577 286.003 289.598 288.028 291.22C290.139 292.911 291.831 295.12 293.898 296.872C298.458 300.738 303.719 303.969 308.803 307.06C310.599 308.152 312.294 309.443 314.125 310.469C315.93 311.481 318.096 312.032 320.031 312.771C324.11 314.328 328.16 316.203 332.388 317.329C334.177 317.805 336.149 317.812 337.881 318.388C338.491 318.591 338.948 318.988 339.411 319.42C339.478 319.484 339.544 319.549 339.61 319.613C345.557 319.764 351.517 319.602 357.466 319.636C362.135 319.663 367.195 320.069 371.815 319.409C373.119 319.222 373.993 318.357 375.226 318.111C391.492 314.878 404.458 307.698 417.969 298.432C422.291 295.467 425.876 291.543 429.592 287.869C433.181 284.322 437.063 280.85 440.348 277.031C441.71 275.447 442.763 273.621 444.034 271.967C447.604 267.325 450.835 262.572 454.125 257.735C456.043 254.916 458.131 252.099 459.824 249.141C463.043 243.515 465.747 237.41 468.654 231.607C472.342 224.244 476.339 217.062 477.857 208.862C478.735 207.918 479.598 207.209 480.647 206.474ZM151.088 275.805C149.686 276.024 148.569 276.52 147.229 276.901C145.154 277.492 142.99 277.743 140.948 278.467C135.952 280.239 127.068 285.348 123.958 289.644C119.027 296.453 116.488 301.591 114.643 309.86C113.853 313.397 113.319 316.638 113.914 320.266C114.054 321.116 114.437 321.645 114.859 322.366C115.896 324.138 115.835 327.617 116.705 329.871C118.087 333.447 120.014 337.739 122.284 340.825C126.88 347.074 135.412 352.619 142.76 355.01C147.82 356.657 152.651 356.357 157.909 356.313C169.239 356.188 176.331 350.479 183.894 342.728C189.235 337.254 193.233 329.388 194.278 321.737C194.626 319.193 194.503 316.454 194.463 313.887C194.298 303.467 189.742 294.664 182.377 287.535C180.913 286.117 179.386 284.687 177.623 283.643C174.541 281.818 168.664 280.125 166.434 277.604L160.505 277.4L158.735 275.729C156.164 275.645 153.657 275.599 151.088 275.805Z"/>
	<path fill="#FEFEFE" transform="matrix(1.72167 0 0 1.72093 0 3.05176e-05)" d="M154.81 289.041L155.085 289.04C161.96 289.069 169.694 293.406 174.398 298.256C181.504 305.583 181.182 309.493 181.044 319.267C180.958 325.367 177.855 331.824 173.473 336.032C167.392 341.871 161.723 342.912 153.727 342.775C144.395 342.827 146.162 343.288 138.378 338.259C136.876 337.289 135.178 336.581 133.844 335.372C130.019 331.907 127.06 324.911 126.86 319.777C126.563 312.146 126.135 306.518 131.642 300.619C138.337 293.447 144.708 289.378 154.81 289.041Z"/>
</svg>
